<svg height="17" width="49" xmlns="http://www.w3.org/2000/svg"><g fill="#757575" fill-rule="evenodd"><path d="m6.16 5.459v1.638h3.922c-.117.922-.425 1.596-.893 2.064-.571.57-1.464 1.2-3.029 1.2-2.415 0-4.303-1.946-4.303-4.361s1.888-4.36 4.303-4.36c1.302 0 2.253.511 2.956 1.17l1.156-1.157c-.98-.936-2.283-1.653-4.112-1.653-3.307 0-6.088 2.693-6.088 6s2.78 6 6.088 6c1.785 0 3.131-.585 4.185-1.683 1.083-1.083 1.42-2.605 1.42-3.834 0-.38-.03-.732-.088-1.024z"/><path d="m16.667 4.127c-2.142 0-3.888 1.629-3.888 3.873 0 2.23 1.746 3.873 3.888 3.873s3.887-1.644 3.887-3.873c0-2.244-1.745-3.873-3.887-3.873zm0 6.22c-1.174 0-2.186-.968-2.186-2.347 0-1.393 1.012-2.347 2.186-2.347 1.173 0 2.186.954 2.186 2.347 0 1.379-1.013 2.347-2.186 2.347zm19.053-5.354h-.059c-.382-.455-1.115-.866-2.039-.866-1.936 0-3.622 1.687-3.622 3.873 0 2.17 1.686 3.873 3.622 3.873.924 0 1.657-.411 2.04-.88h.058v.541c0 1.481-.792 2.273-2.069 2.273-1.041 0-1.686-.748-1.95-1.378l-1.482.616c.426 1.026 1.555 2.288 3.432 2.288 1.996 0 3.682-1.173 3.682-4.034v-6.972h-1.613zm-1.95 5.354c-1.174 0-2.068-.998-2.068-2.347 0-1.364.894-2.347 2.067-2.347 1.16 0 2.068.998 2.068 2.362 0 1.349-.908 2.332-2.068 2.332zm-8.437-6.22c-2.141 0-3.887 1.629-3.887 3.873 0 2.23 1.746 3.873 3.887 3.873 2.142 0 3.888-1.644 3.888-3.873 0-2.244-1.746-3.873-3.888-3.873zm0 6.22c-1.173 0-2.185-.968-2.185-2.347 0-1.393 1.012-2.347 2.185-2.347 1.174 0 2.186.954 2.186 2.347 0 1.379-1.012 2.347-2.186 2.347z" fill-rule="nonzero"/><path d="m38.667.16h1.673v11.713h-1.673z"/><path d="m45.51 10.347c-.865 0-1.481-.396-1.878-1.173l5.178-2.142-.176-.44c-.323-.865-1.305-2.465-3.315-2.465-1.995 0-3.652 1.57-3.652 3.873 0 2.171 1.642 3.873 3.843 3.873 1.775 0 2.801-1.086 3.227-1.717l-1.32-.88c-.44.646-1.042 1.07-1.907 1.07zm-.126-4.768c.689 0 1.272.35 1.467.854l-3.498 1.45c0-1.633 1.155-2.304 2.031-2.304z" fill-rule="nonzero"/></g></svg>